Coordinates
version=1
nRows=21
nColumns=12
inDegrees=yes

Units are S.I. units (second, meters, Newtons, ...)
Angles are in degrees

endheader
time	SC_y	SC_z	SC_x	AC_y	AC_z	AC_x	GH_y	GH_z	GH_yy	EL_x	PS_y
       0.0              -19.14          2.668           42.0          69.23         0.2509          16.81         -80.52          31.16         -56.86          17.71          108.8
   0.02817              -19.14          2.668           42.0          69.23         0.2511          16.81         -80.52          31.15         -56.84          17.71          108.8
   0.05634              -19.15          2.667           42.0          69.23         0.2512          16.81         -80.51          31.15         -56.82          17.72          108.8
    0.0845              -19.15          2.666           42.0          69.23         0.2514          16.81          -80.5          31.15         -56.79          17.72          108.8
    0.1127              -19.15          2.665           42.0          69.22         0.2515           16.8          -80.5          31.14         -56.77          17.73          108.8
    0.1408              -19.16          2.664           42.0          69.22         0.2517           16.8         -80.49          31.14         -56.74          17.74          108.8
     0.169              -19.16          2.662           42.0          69.22         0.2519           16.8         -80.49          31.14         -56.71          17.74          108.8
    0.1972              -19.16          2.661           42.0          69.21         0.2521           16.8         -80.48          31.13         -56.68          17.75          108.8
    0.2253              -19.17           2.66           42.0          69.21         0.2523           16.8         -80.47          31.13         -56.64          17.76          108.8
    0.2535              -19.17          2.658           42.0          69.21         0.2525           16.8         -80.46          31.12         -56.61          17.76          108.8
    0.2817              -19.18          2.657           42.0           69.2         0.2528          16.79         -80.45          31.12         -56.57          17.77          108.8
    0.3099              -19.18          2.655          41.99           69.2          0.253          16.79         -80.44          31.11         -56.53          17.78          108.8
     0.338              -19.19          2.653          41.99           69.2         0.2533          16.79         -80.43           31.1         -56.48          17.79          108.8
    0.3662               -19.2          2.651          41.99          69.19         0.2536          16.79         -80.42           31.1         -56.43           17.8          108.8
    0.3944               -19.2          2.649          41.99          69.19         0.2539          16.79         -80.41          31.09         -56.38          17.81          108.8
    0.4225              -19.21          2.647          41.99          69.18         0.2543          16.78          -80.4          31.08         -56.32          17.82          108.8
    0.4507              -19.22          2.644          41.99          69.18         0.2546          16.78         -80.38          31.07         -56.26          17.84          108.8
    0.4789              -19.23          2.642          41.99          69.17         0.2551          16.78         -80.37          31.06         -56.19          17.85          108.7
     0.507              -19.24          2.639          41.99          69.16         0.2555          16.77         -80.35          31.05         -56.11          17.87          108.7
    0.5352              -19.25          2.636          41.99          69.15          0.256          16.77         -80.33          31.04         -56.03          17.88          108.7
    0.5634              -19.26          2.632          41.98          69.15         0.2566          16.77         -80.31          31.03         -55.94           17.9          108.7
